<?xml version="1.0" standalone="no"?>
<!DOCTYPE svg PUBLIC "-//W3C//DTD SVG 20010904//EN"
 "http://www.w3.org/TR/2001/REC-SVG-20010904/DTD/svg10.dtd">
<svg version="1.0" xmlns="http://www.w3.org/2000/svg"
 width="630.000000pt" height="630.000000pt" viewBox="0 0 630.000000 630.000000"
 preserveAspectRatio="xMidYMid meet">
<metadata>
Created by potrace 1.14, written by Peter Selinger 2001-2017
</metadata>
<g transform="translate(0.000000,630.000000) scale(0.100000,-0.100000)"
fill="#000000" stroke="none">
<path d="M0 3150 l0 -3150 3150 0 3150 0 0 3150 0 3150 -3150 0 -3150 0 0
-3150z m4700 0 l0 -2560 -1549 0 -1548 0 -6 44 c-9 61 -9 5061 0 5069 3 4 703
7 1555 7 l1548 0 0 -2560z"/>
<path d="M1704 5595 c3 -8 6 -168 7 -355 0 -187 4 -340 8 -340 3 1 22 26 41
57 110 175 340 353 586 454 244 100 455 139 782 146 267 6 388 -6 607 -62 158
-40 255 -78 405 -157 151 -79 300 -203 387 -321 26 -36 39 -45 47 -37 7 7 12
110 14 320 l4 310 -1447 0 c-1277 0 -1446 -2 -1441 -15z"/>
<path d="M4536 4690 c-16 -5 -56 -35 -87 -66 -54 -53 -58 -62 -69 -123 -6 -36
-12 -93 -14 -126 -2 -33 -7 -72 -11 -88 -5 -18 -3 -33 6 -43 24 -29 190 -136
204 -131 13 6 30 91 21 106 -3 5 -46 21 -96 37 -49 15 -90 31 -90 36 0 4 33 8
73 8 114 0 117 2 117 71 l0 58 -42 5 c-24 3 -56 7 -72 8 -52 5 -41 26 21 39
89 19 93 23 93 78 0 61 -11 141 -19 140 -3 0 -19 -5 -35 -9z"/>
<path d="M1720 4597 l0 -97 28 -6 c66 -14 123 -37 119 -47 -3 -11 -31 -19
-109 -32 l-38 -6 0 -53 0 -53 38 -7 c20 -3 66 -6 101 -6 85 0 71 -17 -49 -55
l-90 -29 0 -59 c0 -51 2 -58 17 -53 32 13 201 117 214 132 17 21 21 90 7 134
-6 19 -12 72 -13 117 -1 72 -4 85 -28 117 -34 44 -105 86 -157 93 l-40 6 0
-96z"/>
<path d="M2445 4620 c-87 -8 -154 -31 -307 -105 -103 -49 -138 -84 -138 -139
0 -41 34 -34 191 44 217 107 231 105 474 -91 171 -138 250 -184 301 -175 66
13 117 113 95 187 -9 31 -18 39 -58 54 -27 10 -102 53 -168 96 -192 125 -243
142 -390 129z"/>
<path d="M3795 4620 c-93 -8 -166 -40 -305 -135 -47 -32 -114 -72 -150 -88
-36 -16 -68 -34 -72 -41 -13 -20 -8 -97 8 -132 21 -43 59 -74 92 -74 45 0 103
36 279 174 94 74 186 142 204 152 56 28 142 14 252 -42 51 -26 104 -54 119
-61 16 -8 38 -13 50 -11 34 5 36 56 5 94 -47 55 -267 155 -367 166 -19 2 -71
1 -115 -2z"/>
<path d="M2103 4151 c-22 -16 -47 -45 -56 -64 -20 -40 -22 -110 -6 -156 9 -26
14 -30 26 -20 8 7 12 21 9 33 -8 30 11 104 45 170 16 33 28 61 26 63 -2 2 -22
-10 -44 -26z"/>
<path d="M4160 4164 c0 -3 8 -18 19 -32 29 -42 51 -117 51 -177 0 -63 14 -71
36 -20 30 74 12 160 -45 208 -30 25 -61 36 -61 21z"/>
<path d="M2510 4110 c-123 -26 -220 -111 -220 -193 0 -39 -4 -44 -49 -75 -56
-38 -87 -69 -78 -78 4 -4 50 8 104 27 88 29 110 33 208 33 126 0 202 -21 290
-80 72 -47 87 -42 35 11 -28 28 -41 48 -34 53 47 31 104 88 104 104 0 54 -70
137 -152 179 -48 25 -140 33 -208 19z"/>
<path d="M3653 4101 c-29 -10 -71 -31 -94 -47 -44 -30 -119 -117 -119 -137 0
-6 26 -35 58 -63 l57 -51 -53 -48 c-75 -68 -55 -81 38 -25 145 88 258 116 401
101 59 -5 100 -16 137 -35 64 -32 90 -30 41 4 -75 51 -89 70 -89 120 0 141
-207 240 -377 181z"/>
<path d="M3047 3890 c-15 -149 -12 -143 -98 -214 -108 -91 -131 -124 -131
-184 0 -60 10 -94 25 -89 8 2 11 22 9 54 -5 71 12 98 111 176 47 37 88 75 92
85 12 30 16 155 8 202 l-9 45 -7 -75z"/>
<path d="M3272 3870 c-3 -130 6 -149 101 -229 121 -101 121 -101 119 -177 -1
-43 2 -64 9 -62 6 2 10 7 10 11 -1 4 -1 39 -1 77 0 69 -1 71 -42 117 -24 25
-66 63 -95 84 -42 32 -53 46 -58 76 -4 21 -13 58 -20 83 -8 25 -16 59 -18 75
-2 17 -5 -8 -5 -55z"/>
<path d="M2048 3571 c-137 -104 -212 -216 -231 -345 -10 -66 -8 -84 12 -163
55 -218 120 -261 446 -294 129 -13 392 -5 500 16 75 14 103 11 185 -20 35 -13
81 -17 215 -19 161 -1 172 0 211 22 45 26 27 26 315 2 123 -11 189 -11 315 -2
244 17 327 50 394 154 65 100 84 159 84 268 1 87 -2 101 -31 162 -17 37 -53
91 -80 119 -51 55 -162 139 -183 139 -13 0 -14 1 24 -105 14 -38 26 -88 26
-110 0 -83 -88 -175 -187 -195 -81 -17 -147 -2 -314 73 -167 75 -205 87 -274
87 -83 0 -120 -16 -166 -70 -48 -58 -98 -80 -176 -80 l-56 0 -67 70 -67 70
-81 0 c-89 0 -91 -1 -306 -93 -129 -55 -146 -60 -215 -60 -107 -1 -190 41
-243 121 -26 40 -24 132 7 222 14 40 25 75 25 77 0 11 -25 -3 -82 -46z"/>
<path d="M1710 2488 c0 -293 3 -820 7 -1170 l6 -638 1434 0 1433 0 -1 1108
c-1 609 -4 1134 -8 1167 l-6 60 -63 -84 c-35 -47 -68 -96 -73 -110 -6 -14 -25
-55 -43 -91 -47 -91 -62 -139 -91 -300 -29 -160 -46 -210 -116 -331 -57 -101
-108 -161 -198 -235 -252 -206 -240 -193 -286 -281 l-27 -53 -176 0 c-174 0
-176 0 -214 27 -67 46 -231 45 -287 -3 -29 -24 -32 -24 -193 -22 l-163 3 -30
56 c-40 75 -47 82 -210 219 -141 119 -214 200 -287 320 -49 81 -74 160 -99
305 -21 126 -48 223 -82 290 -35 71 -113 180 -171 239 l-56 57 0 -533z m766
-1083 l43 -26 -20 -52 c-12 -28 -25 -62 -30 -74 -10 -28 -13 -28 -48 -2 -33
24 -64 22 -69 -5 -3 -12 18 -38 62 -80 65 -61 66 -62 66 -115 0 -71 -16 -122
-53 -167 -37 -45 -81 -64 -145 -64 -56 0 -135 36 -140 63 -3 14 40 136 55 156
2 3 13 -5 26 -16 49 -45 92 -51 100 -15 4 19 -12 62 -23 62 -4 0 -28 19 -54
43 -45 43 -46 44 -46 106 0 131 68 211 179 211 40 0 66 -7 97 -25z m389 -28
c52 -56 71 -117 68 -217 -4 -237 -206 -422 -340 -313 -21 16 -49 52 -63 79
-22 43 -25 61 -24 149 0 78 5 112 22 155 30 76 77 137 131 172 41 26 53 29
105 25 56 -3 62 -6 101 -50z m405 42 c30 -11 32 -14 26 -48 -3 -20 -8 -67 -12
-104 -7 -67 -19 -92 -30 -64 -9 24 -56 39 -87 28 -37 -14 -57 -60 -57 -129 0
-94 44 -116 123 -60 l30 21 -6 -34 c-3 -19 -9 -61 -13 -94 -10 -91 -16 -101
-69 -114 -139 -35 -236 84 -222 274 12 163 86 292 187 328 27 10 96 7 130 -4z
m-1085 -51 c-14 -114 -9 -108 -75 -108 -51 0 -58 -2 -64 -22 -12 -45 -8 -48
50 -48 l55 0 -6 -57 c-11 -95 -10 -93 -70 -93 l-53 0 -12 -105 -13 -105 -73 0
c-41 0 -74 4 -74 9 0 14 59 513 65 549 l6 32 135 0 136 0 -7 -52z m1295 23 c0
-16 -13 -141 -30 -277 -16 -137 -30 -257 -30 -266 0 -16 -10 -18 -75 -18 -70
0 -75 1 -75 21 0 28 60 540 65 557 3 8 27 12 75 12 l70 0 0 -29z m306 -32 c-3
-34 -6 -70 -6 -80 0 -17 -8 -19 -64 -19 -60 0 -64 -1 -68 -25 -7 -33 -3 -35
54 -35 l48 0 0 -37 c0 -21 -3 -55 -6 -75 l-7 -38 -58 0 c-59 0 -59 0 -59 -30
l0 -30 63 0 63 0 -10 -80 -9 -80 -138 0 -138 0 4 28 c6 34 65 534 65 550 0 9
37 12 136 12 l137 0 -7 -61z m495 -16 l12 -76 30 76 30 77 84 0 c84 0 84 0 72
-22 -6 -13 -47 -88 -89 -168 -77 -143 -78 -147 -90 -250 -17 -164 -8 -150 -96
-150 -67 0 -75 2 -70 18 2 9 10 69 16 132 l12 115 -36 124 c-19 68 -38 126
-41 129 -3 3 -5 -8 -5 -24 0 -16 -3 -46 -6 -66 -6 -36 -9 -38 -44 -38 -44 0
-40 13 -65 -205 -24 -205 -13 -185 -98 -185 l-73 0 17 138 c9 75 20 163 24
195 l6 57 -35 0 c-19 0 -37 3 -39 8 -4 7 11 156 18 180 3 9 58 12 229 12 l225
0 12 -77z"/>
<path d="M2690 1208 c-43 -47 -52 -134 -16 -175 21 -24 27 -26 48 -16 33 15
58 70 58 130 0 76 -46 108 -90 61z"/>
<path d="M2641 2739 c-41 -5 -76 -11 -79 -14 -7 -7 42 -75 85 -117 56 -54 166
-114 273 -149 121 -40 300 -50 420 -25 89 18 235 89 302 144 47 39 138 140
138 152 0 4 -56 10 -125 13 -117 5 -131 4 -208 -21 -76 -24 -95 -26 -262 -26
-164 0 -189 2 -280 27 -103 28 -140 30 -264 16z"/>
</g>
</svg>
